<mxfile host="app.diagrams.net" modified="2022-08-18T23:38:55.063Z" agent="5.0 (Windows NT 10.0; Win64; x64) AppleWebKit/537.36 (KHTML, like Gecko) Chrome/104.0.5112.81 Safari/537.36 Edg/104.0.1293.54" etag="02_puUg_V3qC7GNe5j8Y" version="20.2.5" type="github">
  <diagram id="OMSqmqIMIfGQHRrPUh7g" name="Page-1">
    <mxGraphModel dx="945" dy="521" grid="1" gridSize="10" guides="1" tooltips="1" connect="1" arrows="1" fold="1" page="1" pageScale="1" pageWidth="850" pageHeight="1100" math="0" shadow="0">
      <root>
        <mxCell id="0" />
        <mxCell id="1" parent="0" />
      </root>
    </mxGraphModel>
  </diagram>
</mxfile>
